<svg width="374" height="83" viewBox="0 0 374 83" fill="none" xmlns="http://www.w3.org/2000/svg">
<path d="M117.535 39.3477C117.535 48.1375 123.582 53.9351 132.31 53.9351C141.099 53.9351 147.271 47.2024 147.271 39.1607V8.80136H137.421V38.9113C137.421 42.2153 135.489 44.5842 132.247 44.5842C129.38 44.5842 126.886 42.7763 126.886 38.849V34.7969L117.535 36.4177V39.3477ZM170.058 45.2076C166.504 45.2076 163.076 42.6517 163.076 37.4775C163.076 32.241 166.504 29.8097 170.058 29.8097C173.673 29.8097 177.04 32.241 177.04 37.4775C177.04 42.714 173.673 45.2076 170.058 45.2076ZM170.058 21.0822C160.831 21.0822 153.6 27.8772 153.6 37.4775C153.6 47.0778 160.831 53.9351 170.058 53.9351C179.346 53.9351 186.515 47.0778 186.515 37.4775C186.515 27.8772 179.346 21.0822 170.058 21.0822ZM201.889 53V49.509C203.322 51.8779 206.502 53.6857 210.616 53.6857C219.281 53.6857 225.391 46.8907 225.391 37.4152C225.391 28.1266 219.967 21.2692 210.99 21.2692C206.751 21.2692 203.322 23.0147 202.013 24.9473V7.86627H192.725V53H201.889ZM215.915 37.4775C215.915 42.6517 212.611 45.2076 208.933 45.2076C205.255 45.2076 201.889 42.5893 201.889 37.4775C201.889 32.241 205.255 29.8097 208.933 29.8097C212.611 29.8097 215.915 32.241 215.915 37.4775ZM229.817 44.2101C230.066 47.6388 233.183 53.9351 242.908 53.9351C251.199 53.9351 255.251 48.7609 255.251 43.4621C255.251 38.9113 252.134 35.0463 245.713 33.7371L241.599 32.9267C240.227 32.6774 239.168 31.9293 239.168 30.6202C239.168 28.9993 240.726 27.9396 242.534 27.9396C245.402 27.9396 246.711 29.6851 246.96 31.7423L254.815 30.3085C254.503 26.6928 251.386 21.0822 242.409 21.0822C235.49 21.0822 230.502 25.6953 230.502 31.3682C230.502 35.732 233.121 39.4724 239.729 40.9062L243.282 41.7166C245.589 42.2153 246.337 43.1504 246.337 44.2725C246.337 45.644 245.152 46.9531 242.721 46.9531C239.479 46.9531 237.983 44.8959 237.858 42.7763L229.817 44.2101Z" fill="white"/>
<path d="M165.599 63.2869V60.6139H167.161C168.096 60.6139 168.668 61.1419 168.668 61.9669C168.668 62.7699 168.096 63.2869 167.161 63.2869H165.599ZM167.359 64.2549C168.8 64.2549 169.768 63.2759 169.768 61.9559C169.768 60.6469 168.8 59.6459 167.359 59.6459H164.521V67.4449H165.599V64.2549H167.359ZM178.255 65.8169L176.253 59.6459H175.12L173.162 65.7509L171.446 59.6459H170.335L172.59 67.4449H173.668L175.681 61.1199L177.716 67.4449H178.827L181.049 59.6459H179.938L178.255 65.8169ZM186.39 67.4449H187.644L185.785 64.1779C186.962 63.9579 187.677 63.0889 187.677 61.9669C187.677 60.6799 186.764 59.6459 185.29 59.6459H182.353V67.4449H183.442V64.2549H184.608L186.39 67.4449ZM183.442 63.2869V60.6139H185.092C185.972 60.6139 186.566 61.1419 186.566 61.9669C186.566 62.7699 185.972 63.2869 185.092 63.2869H183.442ZM190.349 66.4879V60.6029H191.966C193.407 60.6029 194.595 61.5929 194.595 63.5619C194.595 65.5199 193.385 66.4879 191.944 66.4879H190.349ZM191.977 67.4449C193.957 67.4449 195.706 66.1139 195.706 63.5619C195.706 60.9989 193.979 59.6459 191.999 59.6459H189.271V67.4449H191.977ZM200.077 59.6459V67.4449H202.805C204.235 67.4449 205.214 66.5539 205.214 65.3219C205.214 64.4529 204.697 63.6609 203.806 63.4409C204.488 63.1879 204.972 62.5939 204.972 61.7579C204.972 60.5259 204.103 59.6459 202.618 59.6459H200.077ZM201.155 63.0559V60.5919H202.453C203.344 60.5919 203.883 61.0759 203.883 61.8129C203.883 62.5389 203.366 63.0559 202.497 63.0559H201.155ZM201.155 66.4989V63.9799H202.695C203.641 63.9799 204.114 64.5079 204.114 65.2559C204.114 66.0149 203.52 66.4989 202.651 66.4989H201.155ZM208.459 64.1119V67.4449H209.537V64.1119L212.287 59.6459H211.055L209.031 63.1219L207.007 59.6459H205.709L208.459 64.1119Z" fill="white"/>
<g clip-path="url(#clip0_6809_10699)">
<path d="M250.038 61.5372C251.55 61.4122 257.323 63.0902 257.794 65.2218C258.25 67.2835 253.546 70.5145 254.027 71.8104C254.323 72.6093 255.724 72.2175 256.686 72.2073C258.409 72.1894 257.032 74.9586 252.786 74.8553C250.585 74.8013 248.268 74.5525 248.17 72.5923C248.04 69.958 253.251 67.5809 252.595 66.4666C252.327 66.0118 251.231 66.0568 250.012 66.0217C246.645 65.9247 247.985 61.7069 250.038 61.5372Z" fill="white"/>
<path d="M242.737 60.4746C241.281 61.6416 240.517 65.5713 240.356 67.6622C240.155 70.2671 240.882 73.8882 244.333 74.7157C247.317 75.4316 248.39 73.7497 247.155 73.1162C245.42 72.2256 244.957 70.8667 245.015 69.1828C245.036 68.5799 245.2 68.1046 245.69 68.1353C246.901 68.2098 248.189 68.0485 248.13 66.3311C248.093 65.2551 246.366 66.0648 245.939 65.4061C245.533 64.7799 247.31 62.6058 246.711 61.5172C246.291 60.7433 243.602 59.7807 242.737 60.4746Z" fill="white"/>
<path d="M226.039 67.7564C227.067 67.5078 227.918 67.2306 228.625 66.9414C228.639 66.9357 228.651 66.9293 228.664 66.9235C229.108 64.5794 230.816 62.4377 233.253 61.591C233.899 58.7246 232.782 55.6152 229.963 54.0786C228.252 53.1022 226.075 52.7336 223.713 53.2019C218.113 54.3122 215.562 59.9313 217.819 66.8015C219.542 72.0441 223.632 75.6693 225.508 74.7274C227.832 73.5605 220.77 69.0313 226.039 67.7564Z" fill="white"/>
<path d="M234.883 70.7017C235.283 70.7659 236.113 70.8487 236.75 70.7892C238.214 70.7234 239.332 70.0814 240.036 69.166C239.869 67.6181 240.027 65.9623 240.33 64.4868C239.825 63.589 238.974 62.7937 237.731 62.27C236.016 61.6025 233.395 61.6225 231.557 63.0407C229.606 64.5472 228.566 66.7533 228.85 68.9421C229.188 72.0589 231.179 73.4223 232.013 73.9305C233.215 74.6641 234.902 75.0074 236.543 74.8337C238.072 74.6343 238.808 74.0398 239.098 73.7053C239.562 73.1692 239.496 72.6361 239.323 72.3941C239.056 72.0238 238.679 72.1703 238.015 72.2955C236.372 72.6038 235.451 72.0837 235.08 71.7795C234.391 71.2145 234.405 70.6242 234.883 70.7017Z" fill="white"/>
</g>
<defs>
<clipPath id="clip0_6809_10699">
<rect width="41" height="21.8898" fill="white" transform="translate(217 53)"/>
</clipPath>
</defs>
</svg>
